<svg width="198" height="199" viewBox="0 0 198 199" fill="none" xmlns="http://www.w3.org/2000/svg">
<path d="M196.899 99.2067C196.912 110.858 194.848 122.419 190.803 133.342C190.364 134.527 189.904 135.701 189.423 136.853C180.62 158.023 164.719 175.445 144.466 186.113C143.483 186.637 142.479 187.161 141.476 187.622C129.043 193.628 115.486 196.936 101.691 197.33C87.8962 197.724 74.1736 195.194 61.4205 189.907C60.375 189.477 59.3295 189.027 58.2839 188.555C37.6348 179.114 20.887 162.792 10.8907 142.366C10.3574 141.318 9.84515 140.165 9.3433 139.054C3.44543 125.689 0.597603 111.173 1.00751 96.5644C1.41741 81.9558 5.07471 67.623 11.7127 54.6114C18.3507 41.5997 27.8019 30.2373 39.3773 21.3526C50.9526 12.468 64.3602 6.28516 78.6221 3.25508C92.8841 0.224995 107.641 0.424036 121.816 3.83769C135.992 7.25134 149.229 13.7935 160.561 22.9872C171.894 32.1808 181.037 43.7941 187.323 56.98C193.61 70.166 196.881 84.5922 196.899 99.2067V99.2067Z" fill="#F5F5F5"/>
<path d="M98.9441 198.449C85.947 198.475 73.0744 195.91 61.0755 190.903C59.9672 190.452 58.9008 189.991 57.9389 189.54C37.088 179.984 20.177 163.491 10.0752 142.859C9.48968 141.664 9.02966 140.564 8.51736 139.516C1.93273 124.649 -0.905524 108.387 0.252411 92.1622C1.41035 75.9372 6.52896 60.2464 15.1578 46.4705C23.7866 32.6947 35.661 21.2562 49.736 13.1617C63.811 5.06732 79.655 0.565152 95.8736 0.0514597C112.092 -0.462233 128.188 3.02831 142.745 10.2159C157.301 17.4034 169.873 28.0677 179.352 41.27C188.831 54.4723 194.927 69.808 197.105 85.9273C199.282 102.047 197.474 118.455 191.838 133.709C191.378 134.946 190.908 136.141 190.437 137.262C181.562 158.656 165.513 176.271 145.062 187.067C144.131 187.57 143.138 188.062 142.03 188.597C128.605 195.13 113.867 198.5 98.9441 198.449V198.449ZM98.9441 2.06064C82.8 2.06579 66.9127 6.11266 52.7245 13.8339C38.5363 21.5552 26.4963 32.7063 17.6976 46.2751C8.89881 59.8438 3.61984 75.4006 2.33985 91.5333C1.05986 107.666 3.81937 123.864 10.3679 138.656C10.8279 139.704 11.3298 140.752 11.9048 141.937C21.7943 162.142 38.3605 178.289 58.7858 187.633C59.7477 188.073 60.7827 188.523 61.8701 188.964C74.4857 194.197 88.0614 196.701 101.709 196.313C115.357 195.925 128.769 192.652 141.068 186.71C142.113 186.186 143.159 185.662 144.027 185.222C164.048 174.646 179.763 157.399 188.461 136.455C188.911 135.407 189.371 134.181 189.82 132.976C195.248 118.285 197.052 102.497 195.079 86.9575C193.105 71.4176 187.413 56.5863 178.487 43.7278C169.561 30.8692 157.666 20.3647 143.816 13.1096C129.966 5.85444 114.571 2.06376 98.9441 2.06064V2.06064Z" fill="#093F68"/>
<path d="M87.8303 46.7189C87.8303 46.7189 50.1081 92.1634 55.0324 99.8353C59.9568 107.507 101.119 136.434 115.829 142.922L130.257 160.33L168.994 126.247C168.994 126.247 125.605 63.9178 115.495 54.1393C105.385 44.3607 87.8303 46.7189 87.8303 46.7189Z" fill="#FFC9B0"/>
<path d="M130.215 161.378H130.132C129.992 161.367 129.857 161.327 129.733 161.263C129.609 161.198 129.499 161.109 129.41 161.001L115.149 143.781C98.0971 136.161 58.587 107.455 54.1017 100.401C49.0728 92.4882 80.6474 53.7409 87.0251 46.048C87.1915 45.8479 87.4263 45.7172 87.6837 45.6812C88.4156 45.5764 105.865 43.2811 116.226 53.3426C126.295 63.1212 168.115 123.102 169.893 125.66C170.039 125.871 170.102 126.128 170.072 126.383C170.041 126.638 169.918 126.873 169.725 127.043L130.905 161.127C130.713 161.291 130.468 161.381 130.215 161.378V161.378ZM88.3947 47.7145C73.9979 65.0915 52.6694 94.1861 55.9 99.2692C60.5421 106.606 101.15 135.302 116.247 141.957C116.392 142.027 116.52 142.127 116.624 142.251L130.309 158.831L167.624 126.079C162.595 118.889 124.068 63.9072 114.752 54.8099C105.97 46.2996 90.9771 47.442 88.3633 47.7145H88.3947Z" fill="#093F68"/>
<path d="M39.3496 124.622C39.3496 124.622 80.9612 64.4207 89.5867 56.948C98.2122 49.4752 117.993 35.4939 126.243 35.7978C134.042 36.0913 138.266 42.7885 130.425 52.567C130.425 52.567 138.862 47.0646 144.016 54.5374C149.171 62.0102 139.855 68.8122 139.855 68.8122C139.855 68.8122 148.345 65.1334 151.805 71.1494C155.088 76.8509 145.815 84.5228 145.815 84.5228C145.815 84.5228 153.133 76.8823 157.744 86.294C162.01 95.0035 114.386 132.032 108.312 134.998C101.066 138.541 91.9496 137.639 91.9496 137.639L71.3111 163.139L39.3496 124.622Z" fill="#FFC9B0"/>
<path d="M71.3111 164.187C71.1575 164.187 71.0057 164.154 70.8666 164.088C70.7274 164.023 70.6043 163.928 70.506 163.81L38.5446 125.251C38.4063 125.069 38.3315 124.846 38.3315 124.617C38.3315 124.388 38.4063 124.165 38.5446 123.983C40.2488 121.52 80.3652 63.593 88.9594 56.1097C97.5535 48.6265 117.262 34.75 125.981 34.75H126.284C130.466 34.9072 133.603 36.7099 134.941 39.6864C136.279 42.663 135.715 46.2159 133.415 50.1672C136.97 49.1191 141.601 49.3287 144.821 54.0346C148.042 58.7404 146.139 63.5615 143.504 66.7791C146.776 66.3704 150.614 66.9887 152.705 70.636C154.628 73.9689 152.966 77.742 150.864 80.6347C151.502 80.5355 152.151 80.5355 152.788 80.6347C155.182 81.0015 157.169 82.7308 158.674 85.875C158.934 86.4956 159.068 87.1619 159.068 87.8349C159.068 88.508 158.934 89.1743 158.674 89.7948C154.492 102.141 114.69 133.101 108.803 135.983C102.342 139.128 94.6052 138.908 92.441 138.771L72.1579 163.925C72.0606 164.045 71.938 164.142 71.7988 164.209C71.6596 164.277 71.5073 164.312 71.3529 164.313L71.3111 164.187ZM40.667 124.57L71.3006 161.535L91.1654 136.948C91.2745 136.815 91.4145 136.711 91.5732 136.645C91.7318 136.579 91.9041 136.554 92.075 136.57C92.1691 136.57 101.004 137.388 107.883 134.024C113.56 131.246 152.736 100.632 156.698 89.0507C157.023 88.317 157.071 87.4906 156.834 86.724C155.642 84.2924 154.189 82.93 152.506 82.6679C150.498 82.343 148.502 83.6322 147.414 84.4916C146.923 84.9632 146.588 85.2462 146.515 85.2986C146.309 85.4658 146.048 85.5486 145.784 85.5301C145.519 85.5115 145.272 85.3932 145.092 85.1989C144.911 85.0046 144.811 84.7489 144.811 84.4833C144.811 84.2178 144.912 83.9623 145.093 83.7684C145.388 83.4719 145.698 83.192 146.024 82.93C148.115 80.9701 153.196 75.5934 150.927 71.6422C147.979 66.5171 140.608 69.6089 140.294 69.7452C140.058 69.852 139.791 69.8674 139.545 69.7883C139.298 69.7092 139.09 69.5412 138.96 69.3169C138.83 69.0926 138.787 68.8279 138.841 68.574C138.894 68.3201 139.039 68.0951 139.249 67.9425C139.583 67.691 147.613 61.7169 143.096 55.177C138.58 48.637 131.303 53.3009 130.989 53.5C130.781 53.6299 130.534 53.6823 130.291 53.6481C130.049 53.6139 129.826 53.4953 129.661 53.3131C129.497 53.1308 129.402 52.8965 129.392 52.6509C129.382 52.4054 129.459 52.1644 129.609 51.9699C133.153 47.526 134.377 43.47 133.049 40.5563C132.003 38.3239 129.536 36.9719 126.211 36.8461H125.96C117.91 36.8461 98.5154 50.6178 90.2872 57.7447C82.3204 64.6201 45.2045 118.072 40.667 124.57Z" fill="#093F68"/>
<path d="M74.3268 102.971L49.0838 88.5487C45.9232 86.7431 41.901 87.8477 40.0997 91.0159L39.3956 92.2543C37.5944 95.4225 38.6962 99.4547 41.8568 101.26L67.0998 115.682C70.2603 117.488 74.2826 116.383 76.0839 113.215L76.7879 111.977C78.5892 108.808 77.4873 104.776 74.3268 102.971Z" fill="#FFC9B0"/>
<path d="M70.3597 117.59C69.0349 117.579 67.7364 117.217 66.5958 116.542L41.3466 102.12C40.4707 101.622 39.7016 100.955 39.0837 100.158C38.4657 99.3604 38.0111 98.4486 37.7458 97.4747C37.4806 96.5007 37.41 95.4838 37.5381 94.4824C37.6662 93.4809 37.9905 92.5148 38.4923 91.6394L39.2033 90.4027C39.6984 89.5295 40.3603 88.7627 41.1513 88.1463C41.9423 87.5298 42.8467 87.0757 43.813 86.8099C44.7792 86.5442 45.7882 86.472 46.7822 86.5975C47.7763 86.723 48.7359 87.0438 49.6062 87.5415L74.8972 102.047C75.7722 102.546 76.5402 103.214 77.1574 104.011C77.7745 104.808 78.2287 105.72 78.4938 106.693C78.759 107.667 78.8299 108.684 78.7025 109.685C78.5751 110.686 78.252 111.652 77.7515 112.528L77.0406 113.764C76.5469 114.639 75.8853 115.407 75.094 116.024C74.3026 116.641 73.3971 117.095 72.4298 117.359C71.7528 117.527 71.0568 117.604 70.3597 117.59ZM45.8319 88.7258C45.3372 88.7243 44.8446 88.7913 44.3682 88.9249C43.6648 89.1168 43.0062 89.4461 42.4302 89.8939C41.8543 90.3418 41.3723 90.8994 41.012 91.5346L40.3116 92.7713C39.9519 93.4064 39.7207 94.1063 39.6312 94.831C39.5416 95.5557 39.5955 96.291 39.7897 96.9948C39.9839 97.6986 40.3147 98.3571 40.763 98.9326C41.2114 99.5082 41.7685 99.9894 42.4026 100.349L67.6518 114.77C68.2842 115.132 68.9816 115.365 69.7041 115.455C70.4265 115.546 71.1596 115.492 71.8612 115.297C72.5628 115.102 73.2191 114.77 73.7922 114.32C74.3653 113.87 74.8439 113.311 75.2004 112.674L75.9114 111.438C76.6349 110.154 76.8211 108.636 76.4291 107.215C76.0371 105.795 75.0989 104.588 73.8204 103.86L48.5711 89.4385C47.735 88.9672 46.7911 88.7217 45.8319 88.7258V88.7258Z" fill="#093F68"/>
<path d="M84.0975 91.7021L54.0856 74.5557C50.6993 72.6211 46.3897 73.8046 44.4598 77.1991L44.2217 77.6179C42.2917 81.0125 43.4723 85.3326 46.8586 87.2673L76.8705 104.414C80.2567 106.348 84.5663 105.165 86.4963 101.77L86.7344 101.351C88.6643 97.9569 87.4837 93.6368 84.0975 91.7021Z" fill="#FFC9B0"/>
<path d="M80.3652 106.386C78.9622 106.392 77.5819 106.031 76.3609 105.338L46.3441 88.1914C45.4192 87.6637 44.6072 86.9584 43.9546 86.1157C43.3021 85.2731 42.8217 84.3096 42.541 83.2806C42.2604 82.2516 42.1849 81.1772 42.319 80.1189C42.4531 79.0606 42.7942 78.0393 43.3226 77.1133L43.563 76.6836C44.6281 74.816 46.3887 73.4482 48.4585 72.8804C50.5284 72.3125 52.7384 72.591 54.6037 73.6546L84.6205 90.8221C85.5452 91.3499 86.3572 92.0551 87.01 92.8975C87.6629 93.7399 88.1438 94.7029 88.4253 95.7316C88.7069 96.7603 88.7835 97.8346 88.6509 98.893C88.5183 99.9514 88.179 100.973 87.6524 101.9L87.412 102.319C86.6998 103.56 85.6727 104.59 84.4351 105.304C83.1974 106.019 81.7933 106.392 80.3652 106.386ZM50.6098 74.6713C49.5484 74.6765 48.507 74.961 47.5896 75.4962C46.6722 76.0314 45.9111 76.7986 45.3822 77.7212L45.1417 78.1404C44.3533 79.5289 44.1472 81.1745 44.5687 82.7153C44.9902 84.2562 46.0049 85.5662 47.3896 86.3573L77.4064 103.504C78.0919 103.897 78.848 104.15 79.6313 104.249C80.4147 104.348 81.2099 104.292 81.9713 104.082C82.7328 103.873 83.4456 103.515 84.0688 103.029C84.692 102.543 85.2135 101.939 85.6032 101.25L85.8437 100.831C86.2355 100.144 86.4881 99.386 86.5872 98.6008C86.6862 97.8155 86.6297 97.0184 86.4209 96.2551C86.2121 95.4917 85.8551 94.7772 85.3703 94.1525C84.8855 93.5277 84.2825 93.005 83.5959 92.6143L53.5686 75.4678C52.6681 74.9492 51.6483 74.6747 50.6098 74.6713V74.6713Z" fill="#093F68"/>
<path d="M94.186 80.6279L61.5217 61.9661C58.0201 59.9655 53.5637 61.1893 51.568 64.6995C49.5723 68.2097 50.7931 72.6771 54.2947 74.6777L86.959 93.3395C90.4606 95.34 94.9171 94.1162 96.9128 90.606C98.9085 87.0958 97.6876 82.6284 94.186 80.6279Z" fill="#FFC9B0"/>
<path d="M90.5799 95.3495C89.1432 95.3597 87.7281 94.9987 86.471 94.3014L53.7777 75.5828C52.7411 75.0854 51.8178 74.3793 51.0655 73.5084C50.3133 72.6374 49.7481 71.6205 49.4053 70.5209C49.0625 69.4213 48.9494 68.2626 49.0731 67.1173C49.1968 65.9719 49.5547 64.8644 50.1243 63.8639C50.6939 62.8633 51.4631 61.9912 52.3839 61.3018C53.3047 60.6125 54.3574 60.1208 55.4762 59.8574C56.5949 59.594 57.7559 59.5645 58.8865 59.7708C60.0172 59.9771 61.0933 60.4148 62.0477 61.0565L94.7619 79.7122C96.1763 80.5452 97.3152 81.7767 98.0367 83.2535C98.7583 84.7303 99.0307 86.3872 98.8201 88.018C98.6095 89.6488 97.9252 91.1816 96.8523 92.4255C95.7794 93.6694 94.3653 94.5696 92.7859 95.0141C92.0684 95.2222 91.3267 95.335 90.5799 95.3495V95.3495ZM87.4433 92.4254C88.8817 93.2233 90.575 93.4234 92.159 92.9825C93.743 92.5416 95.0911 91.4951 95.9132 90.068C96.7353 88.6409 96.9657 86.9474 96.5549 85.3517C96.144 83.7561 95.1248 82.3859 93.7164 81.5359L61.0545 62.8697C59.6263 62.1953 57.997 62.0854 56.4916 62.5621C54.9862 63.0388 53.7155 64.0669 52.933 65.4414C52.1504 66.8158 51.9136 68.4355 52.2698 69.9773C52.626 71.519 53.549 72.8695 54.8546 73.7592L87.4433 92.4254Z" fill="#093F68"/>
<path d="M98.5511 66.2807L68.5392 49.1343C65.1529 47.1997 60.8433 48.3832 58.9134 51.7777L58.6753 52.1966C56.7453 55.5911 57.9259 59.9113 61.3122 61.8459L91.3241 78.9923C94.7103 80.927 99.0199 79.7435 100.95 76.3489L101.188 75.9301C103.118 72.5355 101.937 68.2154 98.5511 66.2807Z" fill="#FFC9B0"/>
<path d="M94.8143 80.97C93.4149 80.9737 92.0386 80.6125 90.8204 79.922L60.8037 62.7755C59.8789 62.2477 59.0669 61.5424 58.4141 60.7001C57.7612 59.8577 57.2803 58.8946 56.9988 57.8659C56.7172 56.8372 56.6406 55.763 56.7732 54.7046C56.9058 53.6462 57.2451 52.6243 57.7717 51.6973L58.0121 51.2781C59.0775 49.408 60.8391 48.0379 62.9108 47.4681C64.9825 46.8983 67.1951 47.1754 69.0632 48.2387L99.08 65.3852C100.005 65.913 100.817 66.6182 101.47 67.4606C102.122 68.303 102.603 69.266 102.885 70.2947C103.166 71.3234 103.243 72.3977 103.111 73.4561C102.978 74.5145 102.639 75.5364 102.112 76.4633L101.872 76.8825C101.346 77.8114 100.642 78.6267 99.8003 79.2814C98.9587 79.9362 97.9961 80.4175 96.9681 80.6975C96.2659 80.8863 95.5413 80.978 94.8143 80.97V80.97ZM65.0589 49.2553C63.9972 49.2531 62.954 49.5333 62.0356 50.0673C61.1172 50.6012 60.3566 51.3699 59.8313 52.2947L59.5909 52.714C58.8024 54.1025 58.5963 55.7481 59.0178 57.2889C59.4393 58.8297 60.454 60.1397 61.8387 60.9309L91.8555 78.0773C93.2407 78.8677 94.8822 79.0743 96.4193 78.6518C97.9564 78.2292 99.2631 77.2121 100.052 75.824L100.293 75.4048C101.081 74.0162 101.287 72.3706 100.866 70.8298C100.444 69.289 99.4297 67.979 98.045 67.1879L68.0282 50.0414C67.1235 49.5247 66.1 49.2538 65.0589 49.2553V49.2553Z" fill="#093F68"/>
<path d="M95.8075 51.1418L92.2736 52.0327C92.2736 52.0327 73.4543 62.9536 68.7181 55.8687C63.9819 48.7837 89.0325 31.0817 94.856 30.7882C100.68 30.4948 109.932 41.0279 109.932 41.0279L95.8075 51.1418Z" fill="#FFC9B0"/>
<path d="M74.1861 59.3166C71.2169 59.3166 69.0944 58.3523 67.8189 56.4449C66.7734 54.7994 66.7734 52.6928 68.0594 50.1564C72.2415 41.7718 89.4925 29.9705 94.8037 29.7085H95.086C101.359 29.7085 110.33 39.8748 110.716 40.315C110.812 40.4247 110.883 40.5531 110.927 40.692C110.97 40.831 110.984 40.9774 110.967 41.122C110.951 41.2675 110.904 41.408 110.831 41.5344C110.757 41.6607 110.657 41.7702 110.539 41.8557L96.3824 52.0429C96.2748 52.1172 96.1542 52.1705 96.027 52.2002L92.629 53.0596C89.4102 54.8657 86.0457 56.3978 82.5712 57.6397C79.8854 58.6509 77.0534 59.2173 74.1861 59.3166ZM95.0965 31.8256H94.8978C90.7157 32.0352 73.9875 43.1029 69.9204 51.1206C69.0213 52.9024 68.8749 54.2649 69.5545 55.3129C72.9629 60.4485 86.701 54.0553 91.709 51.1206C91.7951 51.075 91.8864 51.0398 91.9808 51.0158L95.316 50.1774L108.354 40.86C105.416 37.6948 99.1008 31.8256 95.1069 31.8256H95.0965Z" fill="#093F68"/>
<path d="M78.7866 168.38L61.4729 189.98C60.4274 189.551 59.3818 189.1 58.3363 188.628C37.6872 179.187 20.9394 162.865 10.943 142.44L24.9111 125.01L29.6055 128.783L69.126 160.613L71.698 162.709L74.0504 164.606L78.7866 168.38Z" fill="#FFB2D3"/>
<path d="M61.4728 190.987C61.3369 190.988 61.2019 190.963 61.0755 190.913C59.9672 190.452 58.9008 189.991 57.9389 189.54C37.088 179.984 20.1771 163.491 10.0752 142.859C9.98722 142.679 9.95229 142.479 9.97452 142.28C9.99675 142.081 10.0752 141.893 10.2007 141.738L24.1165 124.36C24.2028 124.253 24.3094 124.163 24.4303 124.097C24.5512 124.031 24.684 123.989 24.821 123.975C24.958 123.96 25.0965 123.973 25.2286 124.012C25.3607 124.051 25.4837 124.116 25.5907 124.203L69.8056 159.838L72.2625 161.819L72.3566 161.882L79.4034 167.562C79.5108 167.649 79.6001 167.755 79.6662 167.877C79.7322 167.998 79.7737 168.131 79.7883 168.268C79.8029 168.406 79.7902 168.544 79.7511 168.677C79.7119 168.809 79.6471 168.933 79.5602 169.04L62.2883 190.599C62.1899 190.72 62.0656 190.818 61.9244 190.885C61.7833 190.952 61.629 190.987 61.4728 190.987ZM12.1662 142.534C22.1041 162.45 38.5454 178.355 58.7544 187.601C59.5072 187.947 60.2914 188.293 61.1173 188.649L77.281 168.474L71.1334 163.516L71.0393 163.454L68.4673 161.357L25.0888 126.457L12.1662 142.534Z" fill="#093F68"/>
<path d="M82.225 154.371L37.7646 118.562L29.6053 128.743L74.0657 164.552L82.225 154.371Z" fill="#F5F5F5"/>
<path d="M74.0921 165.602C73.8526 165.603 73.6201 165.522 73.4334 165.371L28.9676 129.601C28.7537 129.426 28.6172 129.174 28.5879 128.899C28.5585 128.625 28.6386 128.349 28.8107 128.133L36.9658 117.946C37.0535 117.839 37.1616 117.751 37.2836 117.686C37.4056 117.621 37.5392 117.581 37.6767 117.569C37.9501 117.539 38.2243 117.618 38.4399 117.789L82.9058 153.591C83.0132 153.678 83.1025 153.784 83.1685 153.906C83.2345 154.027 83.2761 154.16 83.2906 154.297C83.3052 154.435 83.2926 154.573 83.2534 154.706C83.2143 154.838 83.1494 154.962 83.0626 155.069L74.8971 165.235C74.7223 165.449 74.4706 165.584 74.1966 165.612L74.0921 165.602ZM31.1004 128.553L73.9666 163.045L80.8147 154.503L37.9485 120.011L31.1004 128.553Z" fill="#093F68"/>
<path d="M189.423 136.853C180.62 158.023 164.719 175.445 144.466 186.113C143.483 186.637 142.479 187.161 141.476 187.622L126.044 168.38L130.738 164.596L175.204 128.783L179.898 125.01L189.423 136.853Z" fill="#FFB2D3"/>
<path d="M141.528 188.702C141.379 188.692 141.234 188.651 141.102 188.58C140.971 188.51 140.856 188.412 140.765 188.293L125.281 168.977C125.194 168.87 125.129 168.747 125.09 168.614C125.051 168.482 125.038 168.343 125.053 168.206C125.067 168.068 125.109 167.935 125.175 167.814C125.241 167.693 125.33 167.586 125.438 167.499L179.24 124.151C179.347 124.064 179.47 123.999 179.602 123.96C179.734 123.92 179.873 123.908 180.01 123.922C180.147 123.937 180.279 123.979 180.4 124.045C180.521 124.111 180.628 124.201 180.714 124.308L190.239 136.193C190.354 136.339 190.428 136.513 190.454 136.698C190.479 136.882 190.456 137.069 190.385 137.241C181.513 158.64 165.464 176.26 145.01 187.056C144.079 187.559 143.086 188.052 141.978 188.587C141.839 188.66 141.685 188.7 141.528 188.702V188.702ZM127.518 168.495L141.821 186.312C142.605 185.924 143.337 185.558 144.027 185.191C163.863 174.709 179.476 157.677 188.221 136.979L179.742 126.457L175.863 129.601L127.518 168.495Z" fill="#093F68"/>
<path d="M130.744 164.579L175.204 128.77L167.045 118.59L122.584 154.399L130.744 164.579Z" fill="#F5F5F5"/>
<path d="M130.738 165.602H130.634C130.496 165.589 130.363 165.549 130.24 165.485C130.118 165.42 130.01 165.332 129.923 165.225L121.768 155.037C121.681 154.93 121.616 154.807 121.577 154.674C121.538 154.542 121.525 154.403 121.54 154.266C121.554 154.129 121.596 153.995 121.662 153.874C121.728 153.753 121.817 153.646 121.924 153.56L166.39 117.757C166.497 117.67 166.62 117.605 166.752 117.566C166.884 117.527 167.023 117.514 167.16 117.529C167.297 117.543 167.43 117.585 167.551 117.651C167.672 117.717 167.778 117.807 167.864 117.915L176.019 128.102C176.192 128.318 176.272 128.593 176.242 128.868C176.213 129.143 176.077 129.395 175.863 129.569L131.355 165.371C131.18 165.513 130.963 165.594 130.738 165.602V165.602ZM124.036 154.534L130.885 163.076L173.751 128.584L166.903 120.042L124.036 154.534Z" fill="#093F68"/>
<path d="M57.5729 38.8166C57.4227 38.8179 57.274 38.7867 57.1369 38.7252C56.9998 38.6637 56.8775 38.5734 56.7783 38.4602L51.4776 32.3604C51.2946 32.1506 51.2022 31.8764 51.2208 31.5983C51.2395 31.3202 51.3676 31.0609 51.5769 30.8774C51.7863 30.6939 52.0597 30.6014 52.3372 30.62C52.6146 30.6387 52.8733 30.7671 53.0563 30.977L58.3571 37.0768C58.5386 37.2867 58.6295 37.5602 58.6099 37.8373C58.5903 38.1144 58.4618 38.3724 58.2525 38.5545C58.0646 38.7207 57.8235 38.8137 57.5729 38.8166Z" fill="#DFEAEF"/>
<path d="M35.9412 64.0644C35.8235 64.063 35.7069 64.0418 35.5962 64.0015L19.1502 58.1952C19.0098 58.1591 18.8785 58.0942 18.7645 58.0045C18.6504 57.9148 18.5562 57.8023 18.4879 57.6742C18.4195 57.5461 18.3785 57.4051 18.3674 57.2603C18.3563 57.1154 18.3753 56.9698 18.4233 56.8327C18.4713 56.6957 18.5473 56.5701 18.6463 56.464C18.7453 56.3579 18.8652 56.2736 18.9984 56.2164C19.1317 56.1592 19.2753 56.1304 19.4202 56.1319C19.5652 56.1333 19.7082 56.165 19.8403 56.2248L36.2863 62.0206C36.5636 62.0665 36.8113 62.2209 36.975 62.4499C37.1387 62.6789 37.205 62.9637 37.1593 63.2416C37.1135 63.5196 36.9595 63.768 36.7311 63.9321C36.5026 64.0962 36.2185 64.1626 35.9412 64.1168V64.0644Z" fill="#DFEAEF"/>
<path d="M18.5229 106.627C18.2456 106.659 17.967 106.579 17.7484 106.405C17.5298 106.231 17.3891 105.978 17.3572 105.7C17.3253 105.422 17.4049 105.142 17.5784 104.923C17.7519 104.704 18.0052 104.563 18.2825 104.531L27.483 102.362C27.7429 102.321 28.0085 102.38 28.2268 102.527C28.4451 102.675 28.6 102.899 28.6607 103.155C28.7214 103.412 28.6833 103.682 28.5542 103.912C28.4251 104.141 28.2143 104.314 27.9639 104.395L18.7634 106.575C18.6858 106.603 18.605 106.62 18.5229 106.627V106.627Z" fill="#DFEAEF"/>
<path d="M140.315 38.8166C140.065 38.8137 139.824 38.7207 139.636 38.5545C139.426 38.3724 139.298 38.1144 139.278 37.8373C139.259 37.5602 139.35 37.2867 139.531 37.0768L144.832 30.977C145.015 30.7671 145.274 30.6387 145.551 30.62C145.828 30.6014 146.102 30.6939 146.311 30.8774C146.521 31.0609 146.649 31.3202 146.667 31.5983C146.686 31.8764 146.594 32.1506 146.411 32.3604L141.11 38.4183C141.015 38.5391 140.894 38.6374 140.757 38.7062C140.62 38.7751 140.469 38.8127 140.315 38.8166Z" fill="#DFEAEF"/>
<path d="M161.947 64.0646C161.67 64.1105 161.386 64.0441 161.157 63.8799C160.929 63.7158 160.775 63.4675 160.729 63.1895C160.683 62.9115 160.749 62.6267 160.913 62.3977C161.077 62.1688 161.325 62.0144 161.602 61.9685L178.048 56.2355C178.18 56.1757 178.323 56.1441 178.468 56.1426C178.613 56.1412 178.757 56.17 178.89 56.2271C179.023 56.2843 179.143 56.3686 179.242 56.4747C179.341 56.5808 179.417 56.7064 179.465 56.8435C179.513 56.9806 179.532 57.1262 179.521 57.271C179.51 57.4159 179.469 57.5568 179.4 57.6849C179.332 57.8131 179.238 57.9255 179.124 58.0152C179.01 58.1049 178.878 58.1698 178.738 58.2059L162.292 64.0122C162.181 64.049 162.064 64.0667 161.947 64.0646V64.0646Z" fill="#DFEAEF"/>
<path d="M179.365 106.627C179.285 106.637 179.204 106.637 179.125 106.627L169.924 104.447C169.674 104.366 169.463 104.194 169.334 103.964C169.205 103.734 169.167 103.464 169.227 103.208C169.288 102.951 169.443 102.727 169.661 102.58C169.879 102.433 170.145 102.373 170.405 102.414L179.606 104.583C179.883 104.615 180.136 104.756 180.31 104.975C180.483 105.195 180.563 105.474 180.531 105.752C180.499 106.03 180.358 106.284 180.14 106.458C179.921 106.632 179.642 106.711 179.365 106.679V106.627Z" fill="#DFEAEF"/>
<path d="M98.9442 21.6491C98.667 21.6491 98.401 21.5387 98.205 21.3422C98.0089 21.1456 97.8987 20.879 97.8987 20.6011V6.42063C97.8987 6.14267 98.0089 5.87608 98.205 5.67953C98.401 5.48298 98.667 5.37256 98.9442 5.37256C99.2215 5.37256 99.4875 5.48298 99.6835 5.67953C99.8796 5.87608 99.9898 6.14267 99.9898 6.42063V20.6011C99.9898 20.879 99.8796 21.1456 99.6835 21.3422C99.4875 21.5387 99.2215 21.6491 98.9442 21.6491Z" fill="#DFEAEF"/>
<path d="M98.9442 173.159C98.667 173.159 98.401 173.048 98.205 172.852C98.0089 172.655 97.8987 172.389 97.8987 172.111V157.899C97.8987 157.621 98.0089 157.354 98.205 157.158C98.401 156.961 98.667 156.851 98.9442 156.851C99.2215 156.851 99.4875 156.961 99.6835 157.158C99.8796 157.354 99.9898 157.621 99.9898 157.899V172.069C99.9954 172.21 99.9725 172.351 99.9225 172.483C99.8725 172.615 99.7964 172.735 99.6987 172.837C99.6011 172.939 99.4839 173.02 99.3542 173.075C99.2246 173.13 99.0851 173.159 98.9442 173.159V173.159Z" fill="#DFEAEF"/>
</svg>
