<svg width="200" height="200" viewBox="0 0 200 200" fill="none" xmlns="http://www.w3.org/2000/svg">
<path d="M198.799 99.6403C198.799 119.256 193.002 138.431 182.139 154.741C171.276 171.051 155.837 183.764 137.773 191.27C119.71 198.777 99.833 200.741 80.6566 196.914C61.4803 193.087 43.8657 183.641 30.0403 169.771C16.215 155.9 6.79979 138.228 2.98538 118.989C-0.829026 99.7503 1.12867 79.8086 8.6109 61.6859C16.0931 43.5633 28.7638 28.0735 45.0208 17.1755C61.2777 6.27756 80.3906 0.460781 99.9426 0.460781C112.934 0.427004 125.804 2.9693 137.813 7.94158C149.822 12.9138 160.734 20.2181 169.92 29.4345C179.106 38.6509 186.387 49.5977 191.343 61.646C196.299 73.6943 198.833 86.6064 198.799 99.6403Z" fill="#EFEAEA"/>
<path d="M99.9426 199.262C73.6074 199.262 48.3509 188.766 29.7292 170.083C11.1074 151.401 0.64584 126.062 0.64584 99.6406C0.6441 79.9349 6.467 60.6713 17.3782 44.2859C28.2893 27.9006 43.7986 15.1294 61.9447 7.58755C80.0908 0.0457153 100.059 -1.92803 119.323 1.91593C138.587 5.75988 156.282 15.2489 170.171 29.1829C184.06 43.1169 193.518 60.87 197.349 80.1971C201.181 99.5242 199.213 119.557 191.696 137.763C184.179 155.968 171.449 171.528 155.117 182.475C138.785 193.421 119.584 199.263 99.9426 199.262V199.262ZM99.9426 0.902505C80.4776 0.902505 61.4497 6.69339 45.2651 17.5429C29.0806 28.3924 16.4663 43.8131 9.01734 61.8552C1.56841 79.8972 -0.380566 99.7501 3.41687 118.903C7.2143 138.057 16.5876 155.65 30.3514 169.459C44.1152 183.268 61.6514 192.672 80.7424 196.481C99.8334 200.291 119.622 198.336 137.605 190.863C155.588 183.389 170.959 170.734 181.773 154.497C192.587 138.259 198.359 119.169 198.359 99.6406C198.322 73.4651 187.941 48.3724 169.493 29.8635C151.044 11.3546 126.033 0.939872 99.9426 0.902505V0.902505Z" fill="#231F20"/>
<path d="M116.794 165.219C116.695 165.218 116.599 165.184 116.521 165.122C116.431 165.049 116.372 164.943 116.359 164.828C116.346 164.712 116.379 164.595 116.451 164.504C116.666 164.031 116.852 163.544 117.005 163.047C118.422 159.021 122.144 148.436 130.469 150.008C131.006 148.004 133.637 139.581 140.624 136.509C145.121 134.522 150.48 135.211 156.552 138.557C156.992 135.82 159.244 125.146 168.062 118.684C174.925 113.661 184.086 112.292 195.341 114.632C195.398 114.643 195.451 114.666 195.499 114.698C195.547 114.731 195.588 114.772 195.62 114.821C195.652 114.869 195.674 114.923 195.685 114.98C195.696 115.037 195.696 115.096 195.684 115.153C195.657 115.267 195.587 115.366 195.489 115.43C195.39 115.494 195.271 115.518 195.156 115.497C184.2 113.21 175.269 114.526 168.616 119.399C158.804 126.586 157.379 139.175 157.37 139.299C157.362 139.372 157.336 139.443 157.294 139.504C157.253 139.566 157.197 139.617 157.132 139.652C157.067 139.687 156.995 139.705 156.921 139.705C156.847 139.705 156.775 139.687 156.71 139.652C150.665 136.191 145.385 135.405 141.011 137.33C133.628 140.579 131.279 150.573 131.261 150.643C131.235 150.756 131.165 150.855 131.067 150.917C130.968 150.98 130.848 151.002 130.733 150.979C122.866 149.134 119.364 159.101 117.877 163.339C117.714 163.937 117.478 164.512 117.173 165.051C117.127 165.108 117.07 165.152 117.004 165.182C116.938 165.211 116.866 165.224 116.794 165.219V165.219Z" fill="#D1D3D4"/>
<path d="M119.575 178.073H80.3103L90.5972 117.924H109.288L119.575 178.073Z" fill="#F5F5F5"/>
<path d="M119.575 178.514H80.3102C80.2463 178.516 80.1829 178.502 80.1247 178.476C80.0664 178.449 80.0148 178.41 79.9735 178.361C79.9322 178.312 79.9023 178.254 79.886 178.192C79.8697 178.13 79.8673 178.065 79.8791 178.002L90.166 117.854C90.1826 117.751 90.2351 117.657 90.314 117.589C90.3929 117.521 90.4932 117.484 90.5972 117.483H109.288C109.392 117.484 109.492 117.521 109.571 117.589C109.65 117.657 109.702 117.751 109.719 117.854L120.006 178.002C120.018 178.065 120.015 178.13 119.999 178.192C119.983 178.254 119.953 178.312 119.912 178.361C119.87 178.41 119.819 178.449 119.76 178.476C119.702 178.502 119.639 178.516 119.575 178.514V178.514ZM80.8558 177.632H119.064L108.927 118.366H90.9756L80.8558 177.632Z" fill="#231F20"/>
<path d="M109.833 127.477H89.5588L87.1212 117.704H112.271L109.833 127.477Z" fill="#F5F5F5"/>
<path d="M109.833 127.892H89.594C89.4954 127.891 89.3997 127.858 89.3217 127.797C89.2438 127.737 89.1879 127.652 89.1628 127.556L86.7429 117.81C86.725 117.746 86.7229 117.679 86.7367 117.614C86.7505 117.55 86.7798 117.489 86.822 117.439C86.8606 117.384 86.9121 117.339 86.9719 117.308C87.0317 117.277 87.098 117.261 87.1652 117.262H112.262C112.329 117.261 112.396 117.277 112.456 117.308C112.515 117.339 112.567 117.384 112.605 117.439C112.647 117.49 112.677 117.55 112.692 117.614C112.708 117.678 112.708 117.745 112.693 117.81L110.256 127.592C110.225 127.679 110.168 127.755 110.092 127.809C110.017 127.863 109.926 127.892 109.833 127.892ZM89.902 127.009H109.49L111.708 118.18H87.6844L89.902 127.009Z" fill="#231F20"/>
<path d="M76.9663 87.1924C76.9663 87.1924 66.3362 93.8579 62.6403 104.973C58.9443 116.088 67.3657 137.55 67.3657 137.55L86.7253 116.521L76.9663 87.1924Z" fill="#F5F5F5"/>
<path d="M67.3834 137.991H67.3042C67.2316 137.98 67.1634 137.949 67.1063 137.902C67.0492 137.856 67.0052 137.795 66.9786 137.727C66.6266 136.844 58.5484 115.973 62.2443 104.84C65.9402 93.7076 76.6407 86.9009 76.7463 86.8302C76.8069 86.8018 76.873 86.7871 76.9399 86.7871C77.0068 86.7871 77.0729 86.8018 77.1335 86.8302C77.1951 86.8557 77.2505 86.8941 77.296 86.9428C77.3415 86.9915 77.3762 87.0495 77.3975 87.1127L87.1213 116.415C87.1474 116.489 87.1531 116.57 87.1376 116.647C87.1221 116.725 87.0861 116.797 87.0333 116.856L67.6737 137.886C67.5933 137.956 67.4899 137.993 67.3834 137.991V137.991ZM76.7463 87.8808C74.6608 89.3199 66.1866 95.6058 63.0803 105.105C59.8419 114.817 66.1778 133.03 67.5417 136.729L86.2237 116.423L76.7463 87.8808Z" fill="#231F20"/>
<path d="M122.919 87.1924C122.919 87.1924 133.549 93.8579 137.245 104.973C140.941 116.088 132.519 137.55 132.519 137.55L113.16 116.521L122.919 87.1924Z" fill="#F5F5F5"/>
<path d="M132.502 137.992C132.441 137.993 132.38 137.981 132.324 137.956C132.268 137.932 132.217 137.896 132.176 137.85L112.817 116.821C112.764 116.762 112.728 116.69 112.712 116.612C112.697 116.535 112.702 116.454 112.729 116.38L122.47 87.06C122.491 86.9967 122.526 86.9388 122.571 86.8901C122.617 86.8413 122.672 86.8029 122.734 86.7775C122.795 86.7491 122.861 86.7344 122.928 86.7344C122.994 86.7344 123.061 86.7491 123.121 86.7775C123.227 86.8481 133.927 93.6549 137.623 104.788C141.319 115.92 133.223 136.791 132.889 137.674C132.862 137.743 132.818 137.803 132.761 137.85C132.704 137.896 132.636 137.927 132.563 137.939L132.502 137.992ZM113.679 116.415L132.361 136.72C133.725 133.021 140.061 114.843 136.822 105.097C133.672 95.5972 125.242 89.3113 123.156 87.8722L113.679 116.415Z" fill="#231F20"/>
<path d="M117.067 121.412C122.347 108.725 125.682 90.3355 125.682 69.871C125.682 38.8564 108.628 22.7091 102.151 17.6945C101.448 17.149 100.585 16.853 99.6962 16.853C98.8075 16.853 97.944 17.149 97.241 17.6945C90.7644 22.7091 73.7104 38.8829 73.7104 69.871C73.7104 90.3355 77.0367 108.716 82.3254 121.412C82.3254 121.412 87.6053 124.06 99.6962 124.06C111.787 124.06 117.067 121.412 117.067 121.412Z" fill="#FFB2D3"/>
<path d="M97.241 17.6945C89.2925 24.0474 83.0748 32.3142 79.1663 41.7257H120.226C116.318 32.3142 110.1 24.0474 102.151 17.6945C101.448 17.149 100.585 16.853 99.6962 16.853C98.8075 16.853 97.944 17.149 97.241 17.6945V17.6945Z" fill="#F5F5F5"/>
<path d="M120.226 42.1672H79.1663C79.0942 42.1668 79.0233 42.1487 78.9599 42.1144C78.8964 42.0801 78.8423 42.0308 78.8024 41.9706C78.7624 41.9104 78.7378 41.8414 78.7306 41.7694C78.7235 41.6975 78.7341 41.6249 78.7615 41.558C82.6852 32.0698 88.9507 23.7393 96.9682 17.3502C97.7495 16.7446 98.7089 16.416 99.6962 16.416C100.683 16.416 101.643 16.7446 102.424 17.3502C110.442 23.7393 116.707 32.0698 120.631 41.558C120.658 41.6249 120.669 41.6975 120.662 41.7694C120.655 41.8414 120.63 41.9104 120.59 41.9706C120.55 42.0308 120.496 42.0801 120.432 42.1144C120.369 42.1487 120.298 42.1668 120.226 42.1672V42.1672ZM79.835 41.2843H119.557C115.679 32.1886 109.607 24.2034 101.887 18.0477C101.258 17.5566 100.484 17.2899 99.6874 17.2899C98.8904 17.2899 98.1163 17.5566 97.4874 18.0477C89.7721 24.2032 83.7055 32.1889 79.835 41.2843Z" fill="#231F20"/>
<path d="M100.717 80.6773C109.47 80.6773 116.565 73.5585 116.565 64.7771C116.565 55.9957 109.47 48.877 100.717 48.877C91.9641 48.877 84.8686 55.9957 84.8686 64.7771C84.8686 73.5585 91.9641 80.6773 100.717 80.6773Z" fill="#F5F5F5"/>
<path d="M100.717 81.1006C97.495 81.1024 94.3449 80.1455 91.6652 78.3509C88.9854 76.5563 86.8963 74.0047 85.6621 71.0188C84.4279 68.033 84.1041 64.7469 84.7316 61.5764C85.3591 58.4059 86.9097 55.4932 89.1874 53.2069C91.465 50.9206 94.3673 49.3634 97.5272 48.7321C100.687 48.1009 103.963 48.424 106.939 49.6606C109.916 50.8972 112.461 52.9917 114.251 55.6792C116.041 58.3668 116.997 61.5266 116.997 64.7591C116.992 69.0902 115.275 73.2427 112.224 76.306C109.172 79.3694 105.034 81.0936 100.717 81.1006V81.1006ZM100.717 49.318C97.6687 49.3162 94.6884 50.2216 92.1531 51.9196C89.6179 53.6175 87.6416 56.0318 86.4743 58.8568C85.307 61.6819 85.0011 64.7909 85.5953 67.7904C86.1896 70.7899 87.6573 73.5452 89.8127 75.7077C91.9681 77.8702 94.7145 79.3426 97.7042 79.9388C100.694 80.535 103.793 80.2282 106.609 79.057C109.425 77.8859 111.831 75.9031 113.523 73.3596C115.216 70.8161 116.118 67.8261 116.117 64.7679C116.112 60.6718 114.488 56.7447 111.601 53.8483C108.714 50.9519 104.8 49.3227 100.717 49.318Z" fill="#231F20"/>
<path d="M100.717 74.5852C106.116 74.5852 110.494 70.1938 110.494 64.7767C110.494 59.3597 106.116 54.9683 100.717 54.9683C95.3175 54.9683 90.9404 59.3597 90.9404 64.7767C90.9404 70.1938 95.3175 74.5852 100.717 74.5852Z" fill="black"/>
<path d="M100.717 75.0267C98.6963 75.0267 96.7211 74.4255 95.041 73.2992C93.3609 72.173 92.0514 70.5722 91.2781 68.6992C90.5049 66.8263 90.3025 64.7654 90.6967 62.7771C91.0909 60.7888 92.064 58.9625 93.4928 57.529C94.9216 56.0955 96.742 55.1193 98.7238 54.7238C100.706 54.3283 102.76 54.5313 104.627 55.3071C106.494 56.0829 108.089 57.3966 109.212 59.0822C110.334 60.7678 110.934 62.7495 110.934 64.7768C110.934 67.4952 109.857 70.1023 107.941 72.0245C106.025 73.9468 103.427 75.0267 100.717 75.0267V75.0267ZM100.717 55.4097C98.8704 55.4097 97.0652 55.9591 95.5299 56.9883C93.9945 58.0176 92.7978 59.4805 92.0911 61.1921C91.3844 62.9038 91.1995 64.7872 91.5598 66.6042C91.9201 68.4212 92.8093 70.0903 94.115 71.4003C95.4208 72.7103 97.0844 73.6024 98.8955 73.9638C100.707 74.3253 102.584 74.1398 104.29 73.4308C105.996 72.7218 107.454 71.5212 108.48 69.9808C109.506 68.4404 110.054 66.6294 110.054 64.7768C110.051 62.2932 109.067 59.912 107.316 58.1558C105.566 56.3997 103.192 55.412 100.717 55.4097Z" fill="#231F20"/>
<path d="M108.47 64.3267C108.365 64.3278 108.264 64.2908 108.185 64.2226C108.105 64.1544 108.053 64.0596 108.038 63.9559C107.035 57.0873 100.999 57.3875 100.743 57.4051C100.629 57.4102 100.516 57.3709 100.429 57.2953C100.343 57.2198 100.288 57.1137 100.277 56.999C100.272 56.9415 100.279 56.8836 100.297 56.8287C100.315 56.7738 100.343 56.723 100.381 56.6794C100.419 56.6358 100.465 56.6002 100.516 56.5748C100.568 56.5493 100.624 56.5344 100.682 56.5311C100.752 56.5311 107.783 56.1427 108.901 63.8323C108.916 63.9468 108.886 64.0628 108.817 64.1552C108.747 64.2476 108.645 64.3092 108.531 64.3267H108.47Z" fill="#F5F5F5"/>
<path d="M97.3026 58.3317C97.2366 58.3308 97.1717 58.3153 97.1124 58.2863C97.0531 58.2573 97.0008 58.2156 96.9594 58.164C96.8885 58.0714 96.857 57.9544 96.8718 57.8386C96.8866 57.7228 96.9466 57.6176 97.0386 57.546C97.5738 57.1514 98.1954 56.8911 98.8514 56.7868C98.9678 56.7742 99.0845 56.8078 99.1766 56.8804C99.2686 56.953 99.3288 57.0588 99.3442 57.1752C99.3516 57.2321 99.3476 57.2899 99.3325 57.3452C99.3174 57.4005 99.2915 57.4523 99.2563 57.4974C99.2211 57.5426 99.1773 57.5803 99.1274 57.6084C99.0775 57.6364 99.0226 57.6542 98.9658 57.6608C98.4627 57.7413 97.9861 57.9411 97.5754 58.2435C97.4963 58.3014 97.4006 58.3324 97.3026 58.3317V58.3317Z" fill="#F5F5F5"/>
<path d="M115.149 117.148H115.008C114.899 117.109 114.809 117.03 114.758 116.926C114.707 116.822 114.698 116.702 114.735 116.591C117.471 107.865 119.684 98.9826 121.361 89.9911C121.372 89.9332 121.393 89.8778 121.425 89.8283C121.457 89.7787 121.498 89.7359 121.546 89.7023C121.594 89.6687 121.649 89.6449 121.706 89.6324C121.763 89.6198 121.823 89.6187 121.88 89.6292C121.938 89.6396 121.993 89.6613 122.043 89.6932C122.092 89.725 122.135 89.7663 122.168 89.8146C122.202 89.863 122.225 89.9175 122.238 89.9751C122.25 90.0326 122.252 90.0921 122.241 90.15C120.564 99.1826 118.339 108.104 115.58 116.865C115.548 116.952 115.488 117.027 115.411 117.078C115.333 117.129 115.241 117.153 115.149 117.148Z" fill="#F5F5F5"/>
<path d="M102.204 141.859C102.095 141.857 101.99 141.814 101.91 141.739C101.831 141.664 101.782 141.562 101.773 141.452L100.893 130.17C100.888 130.112 100.895 130.054 100.913 129.999C100.931 129.944 100.959 129.894 100.997 129.85C101.035 129.806 101.081 129.771 101.132 129.745C101.184 129.72 101.24 129.705 101.298 129.702C101.355 129.697 101.413 129.704 101.468 129.722C101.522 129.739 101.573 129.768 101.616 129.806C101.66 129.844 101.695 129.89 101.721 129.942C101.746 129.994 101.761 130.05 101.764 130.108L102.644 141.382C102.649 141.44 102.642 141.498 102.624 141.554C102.607 141.609 102.578 141.66 102.541 141.705C102.503 141.749 102.457 141.785 102.405 141.812C102.354 141.838 102.297 141.854 102.239 141.859H102.204Z" fill="#231F20"/>
<path d="M93.1404 148.445H93.0788C92.9633 148.429 92.8587 148.369 92.7877 148.276C92.7168 148.183 92.6854 148.066 92.7004 147.95L94.2315 136.058C94.2467 135.941 94.3076 135.835 94.4009 135.763C94.4941 135.691 94.612 135.659 94.7287 135.674C94.8454 135.689 94.9513 135.75 95.0231 135.844C95.0949 135.938 95.1267 136.056 95.1115 136.173L93.5804 148.065C93.5654 148.171 93.5125 148.268 93.4316 148.338C93.3506 148.408 93.2471 148.446 93.1404 148.445Z" fill="#231F20"/>
<path d="M107.669 150.969C107.564 150.97 107.463 150.933 107.384 150.865C107.304 150.797 107.252 150.702 107.238 150.598L105.636 140.887C105.618 140.771 105.646 140.653 105.713 140.558C105.78 140.462 105.882 140.397 105.997 140.375C106.112 140.357 106.23 140.385 106.325 140.452C106.42 140.52 106.486 140.622 106.507 140.737L108.109 150.448C108.127 150.563 108.099 150.68 108.031 150.774C107.964 150.868 107.862 150.932 107.748 150.952L107.669 150.969Z" fill="#231F20"/>
<path d="M55.4421 70.5595C55.3261 70.5572 55.2155 70.51 55.1335 70.4277C55.0514 70.3454 55.0044 70.2344 55.0021 70.1181V67.3018C55.0021 67.1847 55.0485 67.0724 55.131 66.9896C55.2135 66.9069 55.3254 66.8604 55.4421 66.8604C55.5588 66.8604 55.6707 66.9069 55.7532 66.9896C55.8357 67.0724 55.8821 67.1847 55.8821 67.3018V70.1181C55.8821 70.2351 55.8357 70.3474 55.7532 70.4302C55.6707 70.513 55.5588 70.5595 55.4421 70.5595Z" fill="#D1D3D4"/>
<path d="M55.4421 76.4395C55.3254 76.4395 55.2135 76.393 55.131 76.3102C55.0485 76.2274 55.0021 76.1151 55.0021 75.9981V73.1553C55.0021 73.0382 55.0485 72.9259 55.131 72.8432C55.2135 72.7604 55.3254 72.7139 55.4421 72.7139C55.5588 72.7139 55.6707 72.7604 55.7532 72.8432C55.8357 72.9259 55.8821 73.0382 55.8821 73.1553V75.9716C55.8857 76.0317 55.877 76.092 55.8565 76.1487C55.836 76.2053 55.8042 76.2572 55.7629 76.301C55.7217 76.3448 55.672 76.3797 55.6168 76.4036C55.5616 76.4274 55.5022 76.4396 55.4421 76.4395Z" fill="#D1D3D4"/>
<path d="M59.7803 72.087H56.9732C56.8565 72.087 56.7446 72.0404 56.6621 71.9577C56.5796 71.8749 56.5332 71.7626 56.5332 71.6455C56.5332 71.5285 56.5796 71.4162 56.6621 71.3334C56.7446 71.2506 56.8565 71.2041 56.9732 71.2041H59.7803C59.897 71.2041 60.0089 71.2506 60.0914 71.3334C60.1739 71.4162 60.2203 71.5285 60.2203 71.6455C60.2203 71.7626 60.1739 71.8749 60.0914 71.9577C60.0089 72.0404 59.897 72.087 59.7803 72.087Z" fill="#D1D3D4"/>
<path d="M53.9197 72.087H51.1038C50.9871 72.087 50.8752 72.0404 50.7927 71.9577C50.7102 71.8749 50.6638 71.7626 50.6638 71.6455C50.6661 71.5292 50.7131 71.4182 50.7952 71.3359C50.8772 71.2536 50.9878 71.2064 51.1038 71.2041H53.9197C54.0357 71.2064 54.1463 71.2536 54.2284 71.3359C54.3104 71.4182 54.3575 71.5292 54.3597 71.6455C54.3597 71.7626 54.3134 71.8749 54.2309 71.9577C54.1483 72.0404 54.0364 72.087 53.9197 72.087Z" fill="#D1D3D4"/>
<path d="M28.33 82.1952C28.2133 82.1952 28.1014 82.1487 28.0189 82.0659C27.9364 81.9832 27.89 81.8709 27.89 81.7538V78.9375C27.89 78.8204 27.9364 78.7082 28.0189 78.6254C28.1014 78.5426 28.2133 78.4961 28.33 78.4961C28.4467 78.4961 28.5586 78.5426 28.6411 78.6254C28.7237 78.7082 28.77 78.8204 28.77 78.9375V81.7538C28.77 81.8709 28.7237 81.9832 28.6411 82.0659C28.5586 82.1487 28.4467 82.1952 28.33 82.1952Z" fill="#D1D3D4"/>
<path d="M28.33 88.0839C28.2133 88.0839 28.1014 88.0374 28.0189 87.9546C27.9364 87.8718 27.89 87.7596 27.89 87.6425V84.8262C27.89 84.7091 27.9364 84.5968 28.0189 84.514C28.1014 84.4313 28.2133 84.3848 28.33 84.3848C28.4467 84.3848 28.5586 84.4313 28.6411 84.514C28.7237 84.5968 28.77 84.7091 28.77 84.8262V87.6425C28.77 87.7596 28.7237 87.8718 28.6411 87.9546C28.5586 88.0374 28.4467 88.0839 28.33 88.0839Z" fill="#D1D3D4"/>
<path d="M32.6682 83.7491H29.8611C29.7444 83.7491 29.6325 83.7025 29.55 83.6198C29.4675 83.537 29.4211 83.4247 29.4211 83.3076C29.4211 83.1906 29.4675 83.0783 29.55 82.9955C29.6325 82.9127 29.7444 82.8662 29.8611 82.8662H32.6682C32.7849 82.8662 32.8968 82.9127 32.9793 82.9955C33.0619 83.0783 33.1082 83.1906 33.1082 83.3076C33.1082 83.4247 33.0619 83.537 32.9793 83.6198C32.8968 83.7025 32.7849 83.7491 32.6682 83.7491Z" fill="#D1D3D4"/>
<path d="M26.7988 83.7491H23.9917C23.875 83.7491 23.7631 83.7025 23.6806 83.6198C23.5981 83.537 23.5517 83.4247 23.5517 83.3076C23.5517 83.1906 23.5981 83.0783 23.6806 82.9955C23.7631 82.9127 23.875 82.8662 23.9917 82.8662H26.7988C26.9155 82.8662 27.0274 82.9127 27.1099 82.9955C27.1925 83.0783 27.2388 83.1906 27.2388 83.3076C27.2388 83.4247 27.1925 83.537 27.1099 83.6198C27.0274 83.7025 26.9155 83.7491 26.7988 83.7491Z" fill="#D1D3D4"/>
<path d="M142.296 62.7812C142.179 62.7812 142.067 62.7347 141.985 62.6519C141.902 62.5691 141.856 62.4568 141.856 62.3398V59.5235C141.856 59.4064 141.902 59.2941 141.985 59.2113C142.067 59.1285 142.179 59.082 142.296 59.082C142.413 59.082 142.525 59.1285 142.607 59.2113C142.69 59.2941 142.736 59.4064 142.736 59.5235V62.3398C142.736 62.4568 142.69 62.5691 142.607 62.6519C142.525 62.7347 142.413 62.7812 142.296 62.7812Z" fill="#D1D3D4"/>
<path d="M142.296 68.6611C142.179 68.6611 142.067 68.6145 141.985 68.5318C141.902 68.449 141.856 68.3367 141.856 68.2196V65.4033C141.858 65.287 141.905 65.176 141.987 65.0937C142.069 65.0114 142.18 64.9642 142.296 64.9619C142.413 64.9619 142.525 65.0084 142.607 65.0912C142.69 65.174 142.736 65.2863 142.736 65.4033V68.2196C142.736 68.3367 142.69 68.449 142.607 68.5318C142.525 68.6145 142.413 68.6611 142.296 68.6611Z" fill="#D1D3D4"/>
<path d="M146.634 64.3262H143.827C143.71 64.3262 143.598 64.2797 143.516 64.1969C143.433 64.1141 143.387 64.0019 143.387 63.8848C143.387 63.7677 143.433 63.6554 143.516 63.5726C143.598 63.4899 143.71 63.4434 143.827 63.4434H146.634C146.751 63.4434 146.863 63.4899 146.945 63.5726C147.028 63.6554 147.074 63.7677 147.074 63.8848C147.074 64.0019 147.028 64.1141 146.945 64.1969C146.863 64.2797 146.751 64.3262 146.634 64.3262Z" fill="#D1D3D4"/>
<path d="M140.774 64.3262H137.966C137.85 64.3262 137.738 64.2797 137.655 64.1969C137.573 64.1141 137.526 64.0019 137.526 63.8848C137.526 63.7677 137.573 63.6554 137.655 63.5726C137.738 63.4899 137.85 63.4434 137.966 63.4434H140.774C140.89 63.4434 141.002 63.4899 141.085 63.5726C141.167 63.6554 141.213 63.7677 141.213 63.8848C141.211 64.0012 141.164 64.1121 141.082 64.1944C141 64.2767 140.889 64.324 140.774 64.3262Z" fill="#D1D3D4"/>
<path d="M174.037 79.2558C173.92 79.2558 173.808 79.2093 173.726 79.1265C173.643 79.0437 173.597 78.9314 173.597 78.8144V75.9981C173.597 75.881 173.643 75.7687 173.726 75.6859C173.808 75.6031 173.92 75.5566 174.037 75.5566C174.153 75.5566 174.265 75.6031 174.348 75.6859C174.43 75.7687 174.477 75.881 174.477 75.9981V78.8144C174.477 78.9314 174.43 79.0437 174.348 79.1265C174.265 79.2093 174.153 79.2558 174.037 79.2558Z" fill="#D1D3D4"/>
<path d="M174.037 85.1357C173.92 85.1357 173.808 85.0892 173.726 85.0064C173.643 84.9236 173.597 84.8113 173.597 84.6942V81.8779C173.597 81.7609 173.643 81.6486 173.726 81.5658C173.808 81.483 173.92 81.4365 174.037 81.4365C174.153 81.4388 174.263 81.486 174.345 81.5683C174.427 81.6506 174.474 81.7616 174.477 81.8779V84.6942C174.477 84.8113 174.43 84.9236 174.348 85.0064C174.265 85.0892 174.153 85.1357 174.037 85.1357Z" fill="#D1D3D4"/>
<path d="M178.366 80.7915H175.559C175.443 80.7893 175.333 80.742 175.25 80.6597C175.168 80.5774 175.121 80.4665 175.119 80.3501C175.119 80.233 175.165 80.1208 175.248 80.038C175.331 79.9552 175.442 79.9087 175.559 79.9087H178.366C178.483 79.9087 178.595 79.9552 178.677 80.038C178.76 80.1208 178.806 80.233 178.806 80.3501C178.806 80.4672 178.76 80.5795 178.677 80.6623C178.595 80.745 178.483 80.7915 178.366 80.7915Z" fill="#D1D3D4"/>
<path d="M172.505 80.7915H169.698C169.582 80.7915 169.47 80.745 169.387 80.6623C169.305 80.5795 169.258 80.4672 169.258 80.3501C169.258 80.233 169.305 80.1208 169.387 80.038C169.47 79.9552 169.582 79.9087 169.698 79.9087H172.505C172.622 79.9087 172.734 79.9552 172.817 80.038C172.899 80.1208 172.945 80.233 172.945 80.3501C172.945 80.4672 172.899 80.5795 172.817 80.6623C172.734 80.745 172.622 80.7915 172.505 80.7915Z" fill="#D1D3D4"/>
<path d="M153.903 36.1459C153.786 36.1459 153.674 36.0994 153.592 36.0166C153.509 35.9339 153.463 35.8216 153.463 35.7045V32.8882C153.463 32.7711 153.509 32.6589 153.592 32.5761C153.674 32.4933 153.786 32.4468 153.903 32.4468C154.02 32.4468 154.131 32.4933 154.214 32.5761C154.297 32.6589 154.343 32.7711 154.343 32.8882V35.7045C154.343 35.8216 154.297 35.9339 154.214 36.0166C154.131 36.0994 154.02 36.1459 153.903 36.1459Z" fill="#D1D3D4"/>
<path d="M153.903 42.0341C153.786 42.0341 153.674 41.9876 153.592 41.9048C153.509 41.822 153.463 41.7098 153.463 41.5927V38.7764C153.463 38.6593 153.509 38.547 153.592 38.4643C153.674 38.3815 153.786 38.335 153.903 38.335C154.02 38.335 154.131 38.3815 154.214 38.4643C154.297 38.547 154.343 38.6593 154.343 38.7764V41.5927C154.343 41.7098 154.297 41.822 154.214 41.9048C154.131 41.9876 154.02 42.0341 153.903 42.0341Z" fill="#D1D3D4"/>
<path d="M158.241 37.6822H155.434C155.317 37.6822 155.205 37.6357 155.123 37.5529C155.04 37.4701 154.994 37.3578 154.994 37.2407C154.994 37.1237 155.04 37.0114 155.123 36.9286C155.205 36.8458 155.317 36.7993 155.434 36.7993H158.241C158.358 36.7993 158.47 36.8458 158.552 36.9286C158.635 37.0114 158.681 37.1237 158.681 37.2407C158.681 37.3578 158.635 37.4701 158.552 37.5529C158.47 37.6357 158.358 37.6822 158.241 37.6822Z" fill="#D1D3D4"/>
<path d="M152.372 37.6822H149.564C149.448 37.6822 149.336 37.6357 149.253 37.5529C149.171 37.4701 149.124 37.3578 149.124 37.2407C149.124 37.1237 149.171 37.0114 149.253 36.9286C149.336 36.8458 149.448 36.7993 149.564 36.7993H152.372C152.488 36.7993 152.6 36.8458 152.683 36.9286C152.765 37.0114 152.812 37.1237 152.812 37.2407C152.812 37.3578 152.765 37.4701 152.683 37.5529C152.6 37.6357 152.488 37.6822 152.372 37.6822Z" fill="#D1D3D4"/>
<path d="M79.7735 175.31H79.7031C79.5877 175.296 79.4823 175.238 79.4098 175.147C79.3372 175.056 79.3035 174.94 79.3159 174.824C79.3159 174.639 81.3574 156.876 73.2616 149.416C69.9705 146.379 65.4034 145.434 59.6835 146.608C59.6208 146.623 59.5552 146.623 59.4925 146.608C59.4297 146.593 59.3715 146.562 59.3228 146.52C59.2718 146.482 59.2302 146.433 59.2012 146.376C59.1722 146.319 59.1566 146.257 59.1556 146.193C59.1556 146.025 58.5924 129.419 48.147 122.418C42.04 118.322 33.7506 118.216 23.5076 122.127C23.4338 122.153 23.3543 122.16 23.2771 122.146C23.1999 122.132 23.1277 122.098 23.0677 122.047C23.0079 121.994 22.9627 121.926 22.9365 121.85C22.9103 121.775 22.904 121.693 22.9181 121.615C22.9181 121.544 24.4844 114.305 20.5069 110.455C17.7438 107.807 12.9567 107.321 6.28647 109.078C6.2304 109.094 6.17172 109.098 6.11395 109.091C6.05619 109.083 6.00054 109.064 5.95038 109.034C5.90021 109.005 5.85657 108.965 5.82207 108.918C5.78758 108.871 5.76295 108.817 5.74968 108.76C5.71999 108.648 5.73569 108.528 5.79335 108.427C5.85102 108.327 5.946 108.253 6.05767 108.222C13.0447 106.385 18.1134 106.924 21.1229 109.828C24.6428 113.272 24.2292 118.957 23.9212 121.032C34.1114 117.289 42.4008 117.5 48.6398 121.694C54.3069 125.508 57.1052 131.962 58.4516 136.702C59.2764 139.619 59.7984 142.613 60.0091 145.637C65.7906 144.56 70.4457 145.637 73.86 148.762C82.2814 156.531 80.2838 174.171 80.1958 174.912C80.1853 175.019 80.1366 175.117 80.059 175.19C79.9813 175.263 79.8799 175.306 79.7735 175.31Z" fill="#D1D3D4"/>
<path d="M166.654 172.837C147.555 190.356 122.371 199.664 96.5089 198.761C70.6466 197.858 46.1683 186.817 28.3299 168.008C28.9723 167.673 29.6323 167.364 30.3099 167.125C47.7246 160.062 57.1932 174.621 57.1932 174.621C57.1932 174.621 61.7339 150.563 89.3828 150.563C117.032 150.563 123.464 169.491 123.464 169.491C123.464 169.491 129.14 158.014 141.636 158.844C154.132 159.674 156.024 175.336 156.024 175.336C159.371 173.818 162.982 172.969 166.654 172.837Z" fill="#F5F5F5"/>
<path d="M99.9425 199.262C86.4843 199.319 73.1573 196.607 60.7854 191.292C48.4135 185.977 37.2596 178.173 28.0131 168.362C27.9659 168.312 27.9309 168.252 27.911 168.186C27.8912 168.12 27.8869 168.05 27.8987 167.983C27.9078 167.915 27.9334 167.85 27.9733 167.795C28.0133 167.739 28.0662 167.695 28.1275 167.665C28.7828 167.318 29.4554 167.006 30.1427 166.729C39.312 162.994 46.2815 165.272 50.5142 167.841C52.998 169.361 55.1913 171.313 56.9908 173.606C58.214 169.104 64.849 150.131 89.3828 150.131C113.626 150.131 121.836 164.778 123.526 168.503C125.127 165.855 130.997 157.733 141.662 158.412C152.97 159.128 155.856 171.788 156.367 174.701C159.627 173.335 163.105 172.57 166.636 172.441C166.725 172.44 166.813 172.466 166.888 172.514C166.963 172.563 167.022 172.633 167.058 172.715C167.092 172.798 167.1 172.89 167.081 172.978C167.063 173.066 167.018 173.147 166.953 173.209C148.651 189.998 124.741 199.293 99.9425 199.262V199.262ZM29.0603 168.133C46.7102 186.528 70.7769 197.349 96.2087 198.324C121.641 199.298 146.46 190.351 165.457 173.359C162.28 173.6 159.169 174.392 156.261 175.699C156.199 175.731 156.129 175.748 156.059 175.748C155.988 175.748 155.919 175.731 155.856 175.699C155.795 175.664 155.743 175.616 155.703 175.558C155.663 175.5 155.637 175.433 155.628 175.363C155.213 172.643 154.379 170.004 153.155 167.541C150.515 162.359 146.661 159.596 141.653 159.26C129.589 158.501 123.957 169.554 123.904 169.66C123.864 169.737 123.804 169.801 123.729 169.845C123.654 169.889 123.568 169.91 123.482 169.907C123.395 169.902 123.311 169.871 123.242 169.818C123.173 169.764 123.121 169.691 123.095 169.607C123.024 169.422 116.407 150.979 89.4268 150.979C62.4467 150.979 57.7036 174.427 57.6244 174.683C57.608 174.77 57.5662 174.85 57.5044 174.912C57.4426 174.975 57.3636 175.017 57.2775 175.034C57.1914 175.051 57.1022 175.042 57.0213 175.008C56.9404 174.974 56.8715 174.916 56.8236 174.842C55.0004 172.31 52.6869 170.172 50.0214 168.556C44.1255 165.025 37.5521 164.637 30.477 167.515C30.0107 167.691 29.5443 167.903 29.0603 168.133V168.133Z" fill="#231F20"/>
<path d="M133.91 177.632C133.848 177.632 133.787 177.619 133.73 177.593C133.674 177.567 133.624 177.529 133.584 177.482C127.917 171.205 123.024 169.633 119.865 169.421C117.977 169.248 116.078 169.609 114.383 170.463C114.284 170.513 114.171 170.523 114.065 170.493C113.959 170.462 113.868 170.393 113.811 170.299C113.753 170.204 113.733 170.092 113.754 169.983C113.775 169.875 113.837 169.778 113.925 169.713C114.013 169.66 122.91 164.336 134.235 176.89C134.29 176.955 134.325 177.033 134.337 177.117C134.35 177.201 134.338 177.286 134.304 177.363C134.27 177.441 134.215 177.507 134.145 177.554C134.076 177.602 133.994 177.629 133.91 177.632V177.632Z" fill="#231F20"/>
<path d="M153.92 156.823C153.81 156.823 153.703 156.782 153.621 156.706C153.54 156.631 153.489 156.528 153.48 156.417C153.48 156.064 152.9 147.836 158.76 142.115C163.072 137.895 169.69 136.208 178.419 137.118C178.477 137.123 178.533 137.141 178.584 137.168C178.635 137.196 178.68 137.233 178.717 137.278C178.754 137.323 178.782 137.375 178.798 137.431C178.815 137.487 178.821 137.545 178.815 137.603C178.809 137.661 178.792 137.717 178.765 137.769C178.737 137.82 178.7 137.866 178.655 137.902C178.61 137.939 178.558 137.967 178.503 137.984C178.447 138.001 178.389 138.006 178.331 138.001C169.874 137.118 163.495 138.724 159.376 142.75C153.815 148.189 154.36 156.276 154.369 156.355C154.374 156.413 154.367 156.471 154.35 156.527C154.332 156.582 154.303 156.634 154.266 156.678C154.228 156.722 154.182 156.759 154.13 156.785C154.079 156.811 154.022 156.827 153.964 156.832L153.92 156.823Z" fill="#D1D3D4"/>
<path d="M51.1038 49.4243C48.702 49.4243 46.3541 48.7098 44.3571 47.3711C42.3601 46.0323 40.8036 44.1295 39.8845 41.9033C38.9653 39.6771 38.7249 37.2275 39.1934 34.8641C39.662 32.5008 40.8186 30.3299 42.5169 28.626C44.2152 26.9222 46.379 25.7618 48.7347 25.2917C51.0903 24.8216 53.532 25.0629 55.751 25.985C57.97 26.9072 59.8665 28.4687 61.2009 30.4723C62.5353 32.4758 63.2475 34.8313 63.2475 37.241C63.2452 40.4715 61.965 43.569 59.6881 45.8533C57.4112 48.1376 54.3238 49.422 51.1038 49.4243V49.4243ZM51.1038 25.9405C48.876 25.9405 46.6983 26.6032 44.846 27.845C42.9937 29.0867 41.55 30.8516 40.6975 32.9165C39.8449 34.9814 39.6219 37.2535 40.0565 39.4456C40.4911 41.6377 41.5639 43.6512 43.1391 45.2316C44.7144 46.812 46.7214 47.8883 48.9063 48.3243C51.0913 48.7604 53.356 48.5366 55.4142 47.6813C57.4724 46.826 59.2315 45.3775 60.4692 43.5192C61.7069 41.6608 62.3675 39.476 62.3675 37.241C62.3652 34.2446 61.1777 31.3716 59.0659 29.2529C56.954 27.1341 54.0904 25.9428 51.1038 25.9405V25.9405Z" fill="#D1D3D4"/>
<path d="M36.6457 139.811C36.5633 139.811 36.4824 139.788 36.4124 139.744C36.3424 139.701 36.286 139.638 36.2498 139.564C25.69 117.492 10.2288 124.405 10.0792 124.476C9.97301 124.526 9.85124 124.532 9.74067 124.492C9.6301 124.453 9.53979 124.37 9.48962 124.264C9.43944 124.157 9.4335 124.035 9.47311 123.924C9.51271 123.813 9.59462 123.723 9.70081 123.672C9.8592 123.602 26.0772 116.292 37.0417 139.175C37.0673 139.227 37.0823 139.284 37.0859 139.342C37.0896 139.4 37.0818 139.458 37.063 139.513C37.0441 139.568 37.0147 139.619 36.9763 139.662C36.938 139.706 36.8914 139.741 36.8393 139.767C36.7797 139.798 36.713 139.813 36.6457 139.811V139.811Z" fill="#D1D3D4"/>
</svg>
