<svg width="52" height="52" viewBox="0 0 52 52" fill="none" xmlns="http://www.w3.org/2000/svg">
<path d="M31.8206 9.47705C31.4003 10.2296 31.0259 11.0069 30.6991 11.8045C27.4889 11.2968 24.2187 11.2968 21.0085 11.8045C20.6818 11.0069 20.3073 10.2296 19.8871 9.47705C16.863 9.99375 13.9233 10.9191 11.1485 12.2277C6.18668 19.3884 3.93645 28.0818 4.80091 36.7506C8.03446 39.1814 11.6636 41.0354 15.5284 42.2307C16.4084 41.0682 17.1938 39.8371 17.877 38.5491C16.6161 38.0842 15.4042 37.4959 14.2588 36.7929C14.573 36.5839 14.8701 36.3504 15.1475 36.0947C18.4873 37.7034 22.1467 38.5388 25.8538 38.5388C29.5609 38.5388 33.2203 37.7034 36.5601 36.0947C36.8563 36.3486 37.1525 36.5813 37.4488 36.7929C36.2972 37.4904 35.0865 38.0851 33.8306 38.5702C34.4855 39.8875 35.2499 41.1473 36.1158 42.3365C39.9757 41.1453 43.5986 39.2909 46.8221 36.8564C47.7073 28.186 45.4552 19.4855 40.4745 12.3335C37.7309 10.9978 34.8202 10.0371 31.8206 9.47705ZM18.8291 31.7995C17.7703 31.7235 16.7821 31.2402 16.072 30.4512C15.3618 29.6621 14.985 28.6287 15.0206 27.5677C14.9796 26.5054 15.3546 25.469 16.0658 24.6787C16.777 23.8885 17.7683 23.4068 18.8291 23.336C19.8899 23.4068 20.8812 23.8885 21.5924 24.6787C22.3036 25.469 22.6786 26.5054 22.6377 27.5677C22.6786 28.6301 22.3036 29.6665 21.5924 30.4567C20.8812 31.2469 19.8899 31.7286 18.8291 31.7995ZM32.8785 31.7995C31.8197 31.7235 30.8315 31.2402 30.1213 30.4512C29.4112 29.6621 29.0344 28.6287 29.0699 27.5677C29.029 26.5054 29.404 25.469 30.1152 24.6787C30.8264 23.8885 31.8177 23.4068 32.8785 23.336C33.9412 23.4015 34.9358 23.8817 35.648 24.6731C36.3603 25.4645 36.7334 26.504 36.687 27.5677C36.7334 28.6315 36.3603 29.6709 35.648 30.4623C34.9358 31.2538 33.9412 31.7339 32.8785 31.7995Z" fill="#F5F5F5"/>
</svg>
