<svg width="52" height="52" viewBox="0 0 52 52" fill="none" xmlns="http://www.w3.org/2000/svg">
<path d="M42.3582 17.384C42.3857 17.7543 42.3857 18.1225 42.3857 18.4906C42.3857 29.7576 33.8101 42.7406 18.1378 42.7406C13.3094 42.7406 8.82378 41.342 5.04907 38.913C5.73461 38.9913 6.39476 39.0188 7.10781 39.0188C10.9439 39.0281 14.6713 37.7453 17.6893 35.3774C15.9107 35.3452 14.1866 34.7584 12.7577 33.6989C11.3288 32.6395 10.2663 31.1602 9.71879 29.4678C10.2456 29.546 10.7746 29.5989 11.329 29.5989C12.0928 29.5989 12.8609 29.4932 13.5739 29.3091C11.6437 28.9194 9.90811 27.8731 8.66217 26.3483C7.41623 24.8235 6.73689 22.9142 6.73965 20.945V20.8392C7.87587 21.4719 9.19406 21.8676 10.5905 21.9205C9.42064 21.1431 8.46138 20.0882 7.7983 18.8499C7.13523 17.6116 6.78898 16.2285 6.79043 14.8238C6.79043 13.2412 7.21149 11.7897 7.94993 10.5244C10.0915 13.1587 12.7625 15.3138 15.7899 16.8501C18.8174 18.3864 22.1338 19.2697 25.5243 19.4428C25.3931 18.808 25.3127 18.15 25.3127 17.4898C25.3122 16.3704 25.5323 15.2619 25.9604 14.2277C26.3885 13.1934 27.0162 12.2536 27.8078 11.4621C28.5993 10.6706 29.539 10.0428 30.5733 9.61472C31.6076 9.18661 32.7161 8.96655 33.8355 8.9671C36.2899 8.9671 38.5052 9.99542 40.0625 11.6585C41.9705 11.2895 43.8002 10.593 45.4706 9.59975C44.8346 11.5692 43.5024 13.2393 41.7234 14.297C43.4157 14.104 45.0695 13.6589 46.6301 12.9767C45.4646 14.6759 44.0202 16.166 42.3582 17.384Z" fill="#F5F5F5"/>
</svg>
